#!OML:ASF F:\VICON\USERDATA\INSTALL\rory3\rory3.ASF
:FULLY-SPECIFIED
:DEGREES
2877
root -4.39807 17.9446 4.89716 -901.172 -105.756 900.951
lowerback 6.65065 2.1962 -2.9407
upperback -6.16307 2.52143 -0.383661
thorax -10.4373 1.39155 0.847465
lowerneck -20.126 -8.13662 -13.7542
upperneck -11.0465 -8.14917 18.0011
head 1.32839 -3.53758 7.28337
rclavicle -1.42628e-014 3.97569e-015
rhumerus 81.2965 -28.1242 -38.9583
rradius 31.9294
rwrist -9.72699
rhand -27.6886 -9.47284
rfingers 7.12502
rthumb -1.08514 -39.4498
lclavicle -1.42628e-014 3.97569e-015
lhumerus 81.6966 37.008 32.4672
lradius 41.3634
lwrist 9.15294
lhand -16.3263 34.6559
lfingers 7.12502
lthumb 9.88534 64.4038
rfemur -0.444093 2.98183 17.0254
rtibia 37.1608
rfoot -12.1262 -0.169751
rtoes -0.753525
lfemur -16.5638 -17.5525 -8.94364
ltibia 28.0153
lfoot 9.1059 -27.1408
ltoes -3.99999
2878
root -4.40771 17.9674 4.83449 -901.531 -106.736 901.51
lowerback 6.63623 2.28185 -2.96567
upperback -6.37242 2.6245 -0.408709
thorax -10.668 1.44356 0.81292
lowerneck -19.9799 -8.40819 -14.2806
upperneck -11.009 -8.40581 18.464
head 1.41635 -3.63744 7.49453
rclavicle -4.4975e-014 -9.54166e-015
rhumerus 81.3715 -28.4111 -38.8919
rradius 31.5997
rwrist -9.4302
rhand -27.7123 -9.49127
rfingers 7.12502
rthumb -1.10803 -39.4681
lclavicle -4.4975e-014 -9.54166e-015
lhumerus 82.2186 37.1601 32.2967
lradius 39.4924
lwrist 8.51905
lhand -15.8592 34.5623
lfingers 7.12502
lthumb 10.336 64.2883
rfemur -0.400328 2.40641 17.2689
rtibia 36.9383
rfoot -12.5329 -1.00298
rtoes -0.602906
lfemur -16.9272 -17.2397 -9.10701
ltibia 28.094
lfoot 7.29597 -25.1613
ltoes -9.87652
2879
root -4.4133 17.9871 4.7719 -902.435 -107.525 902.611
lowerback 6.66819 2.38091 -3.11619
upperback -6.56753 2.72736 -0.455912
thorax -10.918 1.5039 0.822525
lowerneck -20.0104 -8.56416 -14.565
upperneck -10.8063 -8.55163 18.5579
head 1.5221 -3.685 7.5506
rclavicle 1.94809e-014 1.07344e-014
rhumerus 81.671 -28.5506 -39.0762
rradius 31.3035
rwrist -9.29444
rhand -27.686 -9.32724
rfingers 7.12502
rthumb -1.08261 -39.3042
lclavicle 1.94809e-014 1.07344e-014
lhumerus 83.1703 37.1084 32.6279
lradius 37.2158
lwrist 7.03674
lhand -15.6821 34.1015
lfingers 7.12502
lthumb 10.5068 63.8189
rfemur -0.428078 2.12721 17.2855
rtibia 36.8433
rfoot -12.8256 -1.62804
rtoes 0.614268
lfemur -17.1324 -16.614 -9.61235
ltibia 28.1963
lfoot 4.17274 -22.9929
ltoes -19.3492
2880
root -4.4155 18.0027 4.71062 -903.11 -108.189 903.516
lowerback 6.65882 2.48386 -3.24515
upperback -6.72333 2.85068 -0.405637
thorax -11.1052 1.5773 0.923663
lowerneck -20.0821 -8.67392 -14.9541
upperneck -10.5944 -8.60798 18.5007
head 1.61332 -3.68596 7.58481
rclavicle -4.03533e-014 6.55989e-015
rhumerus 81.9255 -28.6843 -38.9716
rradius 31.2352
rwrist -9.87371
rhand -27.6268 -9.1601
rfingers 7.12502
rthumb -1.0255 -39.1374
lclavicle -4.03533e-014 6.55989e-015
lhumerus 83.5519 37.4341 32.3789
lradius 35.2466
lwrist 5.61459
lhand -15.0844 33.6908
lfingers 7.12502
lthumb 11.0833 63.3782
rfemur -0.601214 2.02359 17.3043
rtibia 36.8623
rfoot -13.1045 -2.15234
rtoes 1.42062
lfemur -17.2695 -16.1518 -10.0899
ltibia 28.311
lfoot 0.682735 -20.0393
ltoes -27.1813
2881
root -4.41326 18.017 4.6565 -903.547 -108.852 904.192
lowerback 6.58633 2.58051 -3.16181
upperback -6.8179 2.98652 -0.444193
thorax -11.1672 1.63472 0.813459
lowerneck -20.1591 -8.771 -15.2426
upperneck -10.5683 -8.65594 18.4416
head 1.64458 -3.6921 7.60654
rclavicle -3.41413e-014 1.39149e-015
rhumerus 82.4357 -28.9203 -39.3139
rradius 31.0766
rwrist -10.2038
rhand -27.5547 -9.67105
rfingers 7.12502
rthumb -0.95586 -39.6487
lclavicle -3.41413e-014 1.39149e-015
lhumerus 83.6553 37.9693 31.703
lradius 33.6463
lwrist 4.2544
lhand -14.6747 32.4026
lfingers 7.12502
lthumb 11.4785 62.0684
rfemur -0.856349 1.84234 17.2976
rtibia 36.9654
rfoot -13.2928 -2.58723
rtoes 0.991216
lfemur -17.358 -15.7855 -10.515
ltibia 28.4525
lfoot -2.35811 -16.4297
ltoes -31.1904
2882
root -4.40493 18.0318 4.60933 -903.728 -109.411 904.518
lowerback 6.58003 2.68292 -2.84926
upperback -6.87918 3.1585 -0.466926
thorax -11.2182 1.69182 0.584756
lowerneck -20.2499 -8.91126 -15.7579
upperneck -10.606 -8.71044 18.6335
head 1.69014 -3.69162 7.74909
rclavicle -4.63914e-014 -4.47266e-015
rhumerus 83.1558 -29.0906 -39.848
rradius 30.818
rwrist -10.299
rhand -27.4993 -10.4043
rfingers 7.12502
rthumb -0.902306 -40.3821
lclavicle -4.63914e-014 -4.47266e-015
lhumerus 83.7205 38.5329 31.1143
lradius 32.2334
lwrist 2.49759
lhand -14.613 30.6141
lfingers 7.12502
lthumb 11.5379 60.2765
rfemur -1.06919 1.5087 17.2867
rtibia 37.082
rfoot -13.1916 -2.71994
rtoes 0.614646
lfemur -17.2988 -15.7596 -10.8201
ltibia 28.6459
lfoot -4.73875 -12.6351
ltoes -31.292
2883
root -4.39473 18.0437 4.56562 -904.169 -109.986 905.077
lowerback 6.63752 2.7249 -2.65727
upperback -6.95059 3.23547 -0.459861
thorax -11.3245 1.71413 0.46745
lowerneck -20.3302 -8.90411 -15.9849
upperneck -10.6687 -8.62872 18.611
head 1.67547 -3.63882 7.7905
rclavicle -3.97197e-014 -1.16289e-014
rhumerus 83.733 -29.0506 -40.1681
rradius 30.7438
rwrist -10.7687
rhand -27.8931 -10.9498
rfingers 7.12502
rthumb -1.28266 -40.9257
lclavicle -3.97197e-014 -1.16289e-014
lhumerus 83.3774 39.195 30.1866
lradius 31.0148
lwrist 0.599656
lhand -14.4229 29.724
lfingers 7.12502
lthumb 11.7213 59.376
rfemur -1.22516 1.10064 17.1225
rtibia 37.1732
rfoot -12.9563 -2.69325
rtoes 1.08597
lfemur -17.1708 -16.0059 -11.21
ltibia 28.8862
lfoot -6.71842 -9.40702
ltoes -28.7219
2884
root -4.38907 18.0557 4.52497 -904.429 -110.606 905.452
lowerback 6.65858 2.74373 -2.46715
upperback -7.04401 3.2831 -0.436557
thorax -11.4336 1.72294 0.374568
lowerneck -20.5369 -8.79629 -15.7458
upperneck -10.5415 -8.50633 18.2122
head 1.67863 -3.57822 7.62805
rclavicle -2.1506e-014 -2.51463e-014
rhumerus 84.2407 -28.9258 -40.4953
rradius 30.7663
rwrist -11.2808
rhand -28.4696 -11.3489
rfingers 7.12502
rthumb -1.83949 -41.3207
lclavicle -2.1506e-014 -2.51463e-014
lhumerus 83.0783 39.7118 29.2885
lradius 29.8099
lwrist -1.53468
lhand -14.2969 29.573
lfingers 7.12502
lthumb 11.8428 59.2181
rfemur -1.33367 0.760555 17.0292
rtibia 37.2403
rfoot -12.8331 -2.73809
rtoes 1.27558
lfemur -17.0645 -15.8532 -11.6185
ltibia 29.1373
lfoot -8.6924 -7.19327
ltoes -27.6953
2885
root -4.38469 18.0746 4.48301 -904.637 -111.123 905.704
lowerback 6.72996 2.77013 -2.28146
upperback -7.12641 3.3471 -0.345884
thorax -11.5662 1.74322 0.351641
lowerneck -21.096 -8.73344 -15.53
upperneck -9.7238 -8.43691 17.6442
head 1.93213 -3.51786 7.38755
rclavicle -2.3146e-014 -1.62506e-014
rhumerus 85.0049 -28.6694 -41.1038
rradius 30.6748
rwrist -11.2873
rhand -28.8717 -11.5662
rfingers 7.12502
rthumb -2.22775 -41.5343
lclavicle -2.3146e-014 -1.62506e-014
lhumerus 82.8546 40.0916 28.7712
lradius 28.703
lwrist -3.88723
lhand -14.765 29.004
lfingers 7.12502
lthumb 11.3914 58.6746
rfemur -1.39956 0.563528 17.0014
rtibia 37.3191
rfoot -12.7077 -2.88675
rtoes 0.424395
lfemur -16.8504 -15.5213 -12.027
ltibia 29.355
lfoot -10.4155 -5.42282
ltoes -28.0674
2886
root -4.37851 18.0886 4.43839 -904.898 -111.567 905.9
lowerback 6.88135 2.85404 -2.12431
upperback -7.14152 3.4882 -0.242735
thorax -11.6765 1.80346 0.342732
lowerneck -22.072 -8.73731 -15.2627
upperneck -8.11398 -8.45623 16.8691
head 2.47734 -3.47895 7.0416
rclavicle -8.12532e-015 -1.69961e-014
rhumerus 85.5649 -28.5234 -41.4154
rradius 30.6295
rwrist -11.4698
rhand -29.3285 -11.2829
rfingers 7.12502
rthumb -2.66892 -41.2459
lclavicle -8.12532e-015 -1.69961e-014
lhumerus 83.4618 40.3418 29.4876
lradius 27.5972
lwrist -6.53799
lhand -15.582 27.8963
lfingers 7.12502
lthumb 10.6034 57.6087
rfemur -1.39637 0.386224 17.0004
rtibia 37.4095
rfoot -12.3531 -2.96156
rtoes -0.0919734
lfemur -16.5167 -15.4405 -12.374
ltibia 29.551
lfoot -11.2411 -3.71225
ltoes -25.6424
